<?xml version="1.0" encoding="UTF-8" standalone="no"?>
<!-- Created with Inkscape (http://www.inkscape.org/) -->

<svg
   xmlns:dc="http://purl.org/dc/elements/1.1/"
   xmlns:cc="http://creativecommons.org/ns#"
   xmlns:rdf="http://www.w3.org/1999/02/22-rdf-syntax-ns#"
   xmlns:svg="http://www.w3.org/2000/svg"
   xmlns="http://www.w3.org/2000/svg"
   xmlns:xlink="http://www.w3.org/1999/xlink"
   xmlns:sodipodi="http://sodipodi.sourceforge.net/DTD/sodipodi-0.dtd"
   xmlns:inkscape="http://www.inkscape.org/namespaces/inkscape"
   width="210mm"
   height="297mm"
   id="svg2"
   version="1.1"
   inkscape:version="0.48.4 r9939"
   sodipodi:docname="ras.svg"
   inkscape:export-filename="/home/ivoire/ras.png"
   inkscape:export-xdpi="441.35019"
   inkscape:export-ydpi="441.35019">
  <defs
     id="defs4">
    <radialGradient
       r="19.954109"
       fy="1.3471706"
       fx="10.714277"
       cy="1.3471706"
       cx="10.714277"
       gradientTransform="matrix(2.0055393,-0.537381,0.1076452,0.4017375,-72.008424,88.149937)"
       gradientUnits="userSpaceOnUse"
       id="radialGradient2889"
       xlink:href="#linearGradient2894"
       inkscape:collect="always" />
    <linearGradient
       y2="32.225834"
       x2="8.550292"
       y1="28.996506"
       x1="8.550292"
       gradientUnits="userSpaceOnUse"
       id="linearGradient2887"
       xlink:href="#linearGradient2844"
       inkscape:collect="always" />
    <linearGradient
       y2="32.225834"
       x2="8.550292"
       y1="28.996506"
       x1="8.550292"
       gradientUnits="userSpaceOnUse"
       id="linearGradient2885"
       xlink:href="#linearGradient2844"
       inkscape:collect="always" />
    <radialGradient
       r="19.954109"
       fy="1.3471706"
       fx="10.714277"
       cy="1.3471706"
       cx="10.714277"
       gradientTransform="matrix(2.0055393,-0.537381,0.1076452,0.4017375,-12.008424,17.149937)"
       gradientUnits="userSpaceOnUse"
       id="radialGradient2883"
       xlink:href="#linearGradient2894"
       inkscape:collect="always" />
    <radialGradient
       r="5.4555612"
       fy="19.67079"
       fx="35.986053"
       cy="19.67079"
       cx="35.986053"
       gradientTransform="matrix(1.065299,0,0,1.069873,-2.349853,-1.383156)"
       gradientUnits="userSpaceOnUse"
       id="radialGradient2881"
       xlink:href="#linearGradient2910"
       inkscape:collect="always" />
    <radialGradient
       r="5.4701443"
       fy="19.583324"
       fx="5.5431213"
       cy="19.583324"
       cx="5.5431213"
       gradientTransform="matrix(1.172449,1.635808e-7,-1.396764e-7,1.001117,-0.689313,0.375097)"
       gradientUnits="userSpaceOnUse"
       id="radialGradient2879"
       xlink:href="#linearGradient2910"
       inkscape:collect="always" />
    <radialGradient
       r="20.988943"
       fy="1.2280405"
       fx="44.230965"
       cy="1.2280405"
       cx="44.230965"
       gradientTransform="matrix(1.82365,0,-3.597168e-8,0.352977,-129.24312,81.94153)"
       gradientUnits="userSpaceOnUse"
       id="radialGradient2877"
       xlink:href="#linearGradient2910"
       inkscape:collect="always" />
    <radialGradient
       r="25.781593"
       fy="43"
       fx="-35.781593"
       cy="43"
       cx="-35.781593"
       gradientTransform="matrix(1,0,0,0.1551494,0,88.328574)"
       gradientUnits="userSpaceOnUse"
       id="radialGradient2875"
       xlink:href="#linearGradient4428"
       inkscape:collect="always" />
    <radialGradient
       r="9"
       fy="35.370022"
       fx="-21"
       cy="35.370022"
       cx="-21"
       gradientTransform="matrix(1,0,0,0.4033312,0,83.104189)"
       gradientUnits="userSpaceOnUse"
       id="radialGradient2873"
       xlink:href="#linearGradient4436"
       inkscape:collect="always" />
    <radialGradient
       r="9"
       fy="35.370022"
       fx="-51"
       cy="35.370022"
       cx="-51"
       gradientTransform="matrix(1,0,0,0.4033312,0,83.104189)"
       gradientUnits="userSpaceOnUse"
       id="radialGradient2871"
       xlink:href="#linearGradient4444"
       inkscape:collect="always" />
    <radialGradient
       r="9"
       fy="35.370022"
       fx="-51"
       cy="35.370022"
       cx="-51"
       gradientTransform="matrix(0.6111111,0,0,0.2222221,74.666667,31.140002)"
       gradientUnits="userSpaceOnUse"
       id="radialGradient2869"
       xlink:href="#linearGradient4444"
       inkscape:collect="always" />
    <radialGradient
       r="9"
       fy="35.370022"
       fx="-51"
       cy="35.370022"
       cx="-51"
       gradientTransform="matrix(0.6111111,0,0,0.2222221,38.666667,31.140002)"
       gradientUnits="userSpaceOnUse"
       id="radialGradient2867"
       xlink:href="#linearGradient4444"
       inkscape:collect="always" />
    <linearGradient
       id="linearGradient2894">
      <stop
         id="stop2896"
         offset="0"
         style="stop-color:white;stop-opacity:1;" />
      <stop
         id="stop2898"
         offset="1"
         style="stop-color:white;stop-opacity:0.43629342" />
    </linearGradient>
    <linearGradient
       id="linearGradient2910">
      <stop
         style="stop-color:#ef2929;stop-opacity:1"
         offset="0"
         id="stop2912" />
      <stop
         style="stop-color:#c00;stop-opacity:1"
         offset="1"
         id="stop2914" />
    </linearGradient>
    <linearGradient
       id="linearGradient2844"
       inkscape:collect="always">
      <stop
         id="stop2846"
         offset="0"
         style="stop-color:white;stop-opacity:1;" />
      <stop
         id="stop2848"
         offset="1"
         style="stop-color:white;stop-opacity:0;" />
    </linearGradient>
    <linearGradient
       id="linearGradient4428"
       inkscape:collect="always">
      <stop
         id="stop4430"
         offset="0"
         style="stop-color:#000000;stop-opacity:1;" />
      <stop
         id="stop4432"
         offset="1"
         style="stop-color:#000000;stop-opacity:0;" />
    </linearGradient>
    <linearGradient
       id="linearGradient4436"
       inkscape:collect="always">
      <stop
         id="stop4438"
         offset="0"
         style="stop-color:#000000;stop-opacity:1;" />
      <stop
         id="stop4440"
         offset="1"
         style="stop-color:#000000;stop-opacity:0;" />
    </linearGradient>
    <linearGradient
       id="linearGradient4444"
       inkscape:collect="always">
      <stop
         id="stop4446"
         offset="0"
         style="stop-color:#000000;stop-opacity:1;" />
      <stop
         id="stop4448"
         offset="1"
         style="stop-color:#000000;stop-opacity:0;" />
    </linearGradient>
  </defs>
  <sodipodi:namedview
     id="base"
     pagecolor="#ffffff"
     bordercolor="#666666"
     borderopacity="1.0"
     inkscape:pageopacity="0.0"
     inkscape:pageshadow="2"
     inkscape:zoom="3.4210918"
     inkscape:cx="181.49163"
     inkscape:cy="662.56536"
     inkscape:document-units="px"
     inkscape:current-layer="layer1"
     showgrid="false"
     inkscape:snap-grids="true"
     inkscape:snap-to-guides="true"
     inkscape:object-nodes="true"
     inkscape:snap-smooth-nodes="false"
     inkscape:snap-midpoints="false"
     inkscape:snap-bbox="true"
     inkscape:snap-nodes="true"
     inkscape:window-width="1440"
     inkscape:window-height="853"
     inkscape:window-x="-3"
     inkscape:window-y="-3"
     inkscape:window-maximized="1">
    <inkscape:grid
       type="xygrid"
       id="grid3866" />
  </sodipodi:namedview>
  <metadata
     id="metadata7">
    <rdf:RDF>
      <cc:Work
         rdf:about="">
        <dc:format>image/svg+xml</dc:format>
        <dc:type
           rdf:resource="http://purl.org/dc/dcmitype/StillImage" />
        <dc:title></dc:title>
      </cc:Work>
    </rdf:RDF>
  </metadata>
  <g
     inkscape:label="Calque 1"
     inkscape:groupmode="layer"
     id="layer1">
    <g
       id="g3877"
       transform="matrix(0.88308412,-0.00231191,0.00248623,0.94966879,14.655633,21.027154)"
       inkscape:export-filename="/home/ivoire/ras.png"
       inkscape:export-xdpi="441.35001"
       inkscape:export-ydpi="441.35001">
      <path
         inkscape:connector-curvature="0"
         id="path2995"
         d="m 216.46917,324.76329 c 14.34975,25.6941 28.53775,51.47838 43.02664,77.0947 -32.99714,-0.12788 -65.99435,-0.14893 -98.99162,-0.0631 15.43919,-27.66869 30.82206,-55.36776 46.05958,-83.14815"
         style="fill:#ffffff;fill-opacity:1;fill-rule:evenodd;stroke:#000000;stroke-width:1.00841057;stroke-linecap:butt;stroke-linejoin:miter;stroke-miterlimit:4;stroke-opacity:1" />
      <path
         inkscape:connector-curvature="0"
         id="path3870"
         d="m 206.56377,318.64671 c 2.25105,4.37334 4.50211,8.74668 6.75316,13.12002"
         style="fill:none;stroke:#000000;stroke-width:1px;stroke-linecap:butt;stroke-linejoin:miter;stroke-opacity:1" />
      <path
         inkscape:connector-curvature="0"
         id="path3872"
         d="m 216.46917,324.76329 c -1.05075,2.33448 -2.10149,4.66896 -3.15224,7.00344"
         style="fill:none;stroke:#000000;stroke-width:1px;stroke-linecap:butt;stroke-linejoin:miter;stroke-opacity:1" />
    </g>
    <text
       xml:space="preserve"
       style="font-size:24px;font-style:normal;font-variant:normal;font-weight:500;font-stretch:normal;line-height:0%;letter-spacing:0px;word-spacing:0px;fill:#000000;fill-opacity:1;stroke:none;font-family:Century Schoolbook L;-inkscape-font-specification:Century Schoolbook L Medium"
       x="168.50064"
       y="398.70819"
       id="text3882"
       sodipodi:linespacing="0%"
       transform="matrix(0.99999657,-0.00261799,0.00261799,0.99999657,0,0)"
       inkscape:export-filename="/home/ivoire/ras.png"
       inkscape:export-xdpi="441.35001"
       inkscape:export-ydpi="441.35001"><tspan
         sodipodi:role="line"
         id="tspan3884"
         x="168.50064"
         y="398.70819">R.A.S</tspan></text>
    <g
       id="g4101"
       transform="matrix(0.99999657,-0.00261799,0.00261799,0.99999657,176.24363,334.80219)"
       inkscape:export-filename="/home/ivoire/ras.png"
       inkscape:export-xdpi="441.35001"
       inkscape:export-ydpi="441.35001">
      <g
         style="display:inline"
         id="layer1-6"
         inkscape:label="Livello 1">
        <g
           transform="translate(-1,0)"
           id="g2850">
          <rect
             style="opacity:0.2;fill:url(#radialGradient2867);fill-opacity:1;stroke:none;display:inline"
             id="rect6289"
             width="11"
             height="3.9999971"
             x="2"
             y="37" />
          <rect
             style="opacity:0.2;fill:url(#radialGradient2869);fill-opacity:1;stroke:none;display:inline"
             id="rect6293"
             width="11"
             height="3.9999971"
             x="38"
             y="37" />
          <g
             id="g6045"
             transform="translate(61,-60)">
            <rect
               style="opacity:0.2;fill:url(#radialGradient2871);fill-opacity:1;stroke:none;display:inline"
               id="rect3075"
               width="18"
               height="7.2599611"
               x="-60"
               y="93.740036" />
            <rect
               style="opacity:0.2;fill:url(#radialGradient2873);fill-opacity:1;stroke:none;display:inline"
               id="rect3083"
               width="18"
               height="7.2599611"
               x="-30"
               y="93.740036" />
            <rect
               style="opacity:0.06756759;fill:url(#radialGradient2875);fill-opacity:1;stroke:none"
               id="rect2954"
               width="51.563187"
               height="8"
               x="-61.563187"
               y="91" />
            <rect
               style="fill:#cc0000;fill-opacity:1;stroke:#a40000;stroke-width:1.0000037;stroke-linecap:round;stroke-linejoin:miter;stroke-miterlimit:4;stroke-opacity:1;stroke-dasharray:none;stroke-dashoffset:0"
               id="rect2814"
               width="12.034308"
               height="4.0000105"
               x="-79.230225"
               y="77.215225"
               rx="1.4805118"
               ry="1.4805118"
               inkscape:transform-center-y="0.99612571"
               transform="matrix(0.9659258,-0.258819,0.258819,0.9659258,0,0)"
               inkscape:transform-center-x="-0.26691096" />
            <rect
               style="fill:#cc0000;fill-opacity:1;stroke:#a40000;stroke-width:1.00000358;stroke-linecap:round;stroke-linejoin:miter;stroke-miterlimit:4;stroke-opacity:1;stroke-dasharray:none;stroke-dashoffset:0"
               id="rect2828"
               width="12.034308"
               height="4.0000105"
               x="-9.6902475"
               y="95.846207"
               rx="1.4805118"
               ry="1.4805118"
               inkscape:transform-center-y="0.99612571"
               transform="matrix(-0.9659258,-0.258819,-0.258819,0.9659258,0,0)"
               inkscape:transform-center-x="-0.26691096" />
            <path
               style="fill:url(#radialGradient2877);fill-opacity:1;stroke:#a40000;stroke-width:1;stroke-linecap:round;stroke-linejoin:miter;stroke-miterlimit:4;stroke-opacity:1;stroke-dasharray:none;stroke-dashoffset:0"
               d="m -36,81.5 c -10.459658,0 -19.063005,4.615197 -19.9375,10.5 -0.567975,1.229253 -0.721359,2.653245 -0.34375,4.0625 0.08746,0.326399 0.208284,0.639683 0.34375,0.9375 l 11.40625,-3.0625 c -0.03159,-0.32565 -0.06879,-0.673601 -0.15625,-1 -0.208191,-0.776981 -0.57202,-1.459609 -1.03125,-2.0625 1.377683,-2.550297 5.206613,-4.375 9.71875,-4.375 4.512138,0 8.341068,1.824703 9.71875,4.375 -0.457667,0.601943 -0.792292,1.287323 -1,2.0625 -0.08746,0.326399 -0.155909,0.674351 -0.1875,1 L -16.0625,97 c 0.135466,-0.297817 0.256289,-0.611102 0.34375,-0.9375 0.385521,-1.438785 0.222381,-2.90981 -0.375,-4.15625 C -17.045278,86.066284 -25.596108,81.5 -36,81.5 z"
               id="path2759"
               inkscape:connector-curvature="0" />
            <path
               sodipodi:type="inkscape:offset"
               inkscape:radius="-0.47406253"
               inkscape:original="M 10.34375 17.5625 C 9.5718404 17.454867 8.7685364 17.504448 7.96875 17.71875 C 4.769604 18.57596 2.8615416 21.863355 3.71875 25.0625 C 3.8062083 25.388899 3.9270339 25.702183 4.0625 26 L 15.46875 22.9375 C 15.437158 22.61185 15.399959 22.263899 15.3125 21.9375 C 14.669594 19.538141 12.659479 17.885398 10.34375 17.5625 z "
               style="fill:url(#radialGradient2879);fill-opacity:1;stroke:none"
               id="path2855"
               d="m 10.28125,18.03125 c -0.7076331,-0.09867 -1.4467104,-0.04224 -2.1875,0.15625 -2.9519842,0.790983 -4.6969265,3.799155 -3.90625,6.75 0.041914,0.156427 0.098507,0.315709 0.15625,0.46875 l 10.59375,-2.8125 c -0.0242,-0.184845 -0.05013,-0.368466 -0.09375,-0.53125 -0.593055,-2.213312 -2.428746,-3.733726 -4.5625,-4.03125 z"
               transform="translate(-60,71)" />
            <path
               sodipodi:type="inkscape:offset"
               inkscape:radius="-0.47841442"
               inkscape:original="M 37.6875 17.5625 C 35.371771 17.885399 33.361656 19.538141 32.71875 21.9375 C 32.631291 22.263899 32.562841 22.611851 32.53125 22.9375 L 43.9375 26 C 44.072966 25.702183 44.193789 25.388898 44.28125 25.0625 C 45.138458 21.863355 43.261646 18.575959 40.0625 17.71875 C 39.262714 17.504448 38.45941 17.454867 37.6875 17.5625 z "
               style="fill:url(#radialGradient2881);fill-opacity:1;stroke:none"
               id="path2875"
               d="m 37.75,18.03125 c -2.132084,0.297292 -3.969903,1.819646 -4.5625,4.03125 -0.04755,0.177465 -0.06187,0.35027 -0.09375,0.53125 l 10.5625,2.8125 c 0.0577,-0.152925 0.114376,-0.312478 0.15625,-0.46875 0.790818,-2.951373 -0.926037,-5.959827 -3.875,-6.75 -0.740248,-0.198349 -1.480457,-0.254838 -2.1875,-0.15625 z"
               transform="translate(-60,71)" />
            <path
               sodipodi:type="inkscape:offset"
               inkscape:radius="-1.0299597"
               inkscape:original="M 24 10.5 C 13.540342 10.5 4.9369948 15.115197 4.0625 21 C 3.4945247 22.229253 3.3411412 23.653245 3.71875 25.0625 C 3.7334834 25.117486 3.7647122 25.16452 3.78125 25.21875 C 3.7841345 25.228209 3.7783138 25.240565 3.78125 25.25 C 3.788405 25.339046 3.8197661 25.441741 3.84375 25.53125 L 4.09375 26.53125 C 4.3060333 27.323502 5.1139975 27.774783 5.90625 27.5625 L 14.6875 25.21875 C 15.479752 25.006467 15.931033 24.198503 15.71875 23.40625 L 15.46875 22.40625 C 15.442215 22.307218 15.387727 22.213173 15.34375 22.125 C 15.33063 22.062813 15.328837 21.998469 15.3125 21.9375 C 15.104309 21.160519 14.74048 20.477891 14.28125 19.875 C 15.658933 17.324703 19.487863 15.5 24 15.5 C 28.512138 15.5 32.341068 17.324703 33.71875 19.875 C 33.261083 20.476943 32.926458 21.162323 32.71875 21.9375 C 32.707694 21.978762 32.697913 22.020638 32.6875 22.0625 C 32.628492 22.168063 32.564047 22.283851 32.53125 22.40625 L 32.28125 23.40625 C 32.068968 24.198502 32.520248 25.006467 33.3125 25.21875 L 42.09375 27.5625 C 42.886004 27.774784 43.693967 27.323502 43.90625 26.53125 L 44.15625 25.53125 C 44.180234 25.441741 44.211595 25.339045 44.21875 25.25 C 44.219511 25.240527 44.218173 25.228207 44.21875 25.21875 C 44.235288 25.16452 44.266516 25.117486 44.28125 25.0625 C 44.666771 23.623715 44.503631 22.15269 43.90625 20.90625 C 42.954722 15.066284 34.403892 10.5 24 10.5 z "
               style="opacity:0.34234236;fill:none;stroke:url(#radialGradient2883);stroke-width:1;stroke-linecap:round;stroke-linejoin:miter;stroke-miterlimit:4;stroke-opacity:1;stroke-dasharray:none;stroke-dashoffset:0"
               id="path2892"
               d="m 24,11.53125 c -5.078343,0 -9.708139,1.144485 -13.09375,2.9375 -3.3856109,1.793015 -5.4416808,4.192119 -5.8125,6.6875 A 1.0300627,1.0300627 0 0 1 5,21.4375 c -0.4705562,1.018412 -0.5959184,2.169392 -0.28125,3.34375 -0.041434,-0.154633 -0.011095,-0.11633 0.0625,0.125 0.025041,0.08211 -0.00749,0.06629 0,0.125 a 1.0300627,1.0300627 0 0 1 0,0.03125 1.0300627,1.0300627 0 0 1 0.03125,0.09375 c -0.00703,-0.08744 1.453e-4,-0.02233 0.03125,0.09375 a 1.0300627,1.0300627 0 0 1 0,0.03125 l 0.25,0.96875 c 0.068492,0.255614 0.260584,0.385025 0.53125,0.3125 a 1.0300627,1.0300627 0 0 1 0.03125,0 l 8.75,-2.34375 c 0.255614,-0.06849 0.385025,-0.260583 0.3125,-0.53125 a 1.0300627,1.0300627 0 0 1 0,-0.03125 l -0.25,-0.96875 0,-0.03125 c 9.03e-4,0.0084 0.01431,0.02884 -0.03125,-0.0625 a 1.0300627,1.0300627 0 0 1 -0.09375,-0.25 c -0.03883,-0.184053 -0.05693,-0.220826 -0.03125,-0.125 C 14.142918,21.58586 13.85979,21.01337 13.46875,20.5 A 1.0300627,1.0300627 0 0 1 13.375,19.375 c 1.659329,-3.071665 5.835187,-4.90625 10.625,-4.90625 4.789814,0 8.965672,1.834585 10.625,4.90625 A 1.0300627,1.0300627 0 0 1 34.53125,20.5 c -0.376083,0.49464 -0.637086,1.064097 -0.8125,1.71875 -0.0053,0.01967 -0.01847,0.04236 -0.03125,0.09375 a 1.0300627,1.0300627 0 0 1 -0.09375,0.25 c -0.04667,0.08349 -0.06329,0.101454 -0.0625,0.09375 l 0,0.03125 -0.25,0.96875 a 1.0300627,1.0300627 0 0 1 0,0.03125 c -0.07252,0.270666 0.05689,0.462759 0.3125,0.53125 l 8.75,2.34375 a 1.0300627,1.0300627 0 0 1 0.03125,0 c 0.270668,0.07252 0.462758,-0.05689 0.53125,-0.3125 l 0.25,-0.96875 a 1.0300627,1.0300627 0 0 1 0,-0.03125 c 0.0311,-0.116081 0.03828,-0.181191 0.03125,-0.09375 a 1.0300627,1.0300627 0 0 1 0.03125,-0.25 c 0.07359,-0.241318 0.103931,-0.279617 0.0625,-0.125 0.321296,-1.199093 0.179965,-2.409967 -0.3125,-3.4375 A 1.0300627,1.0300627 0 0 1 42.875,21.0625 C 42.471132,18.583777 40.407544,16.213918 37.03125,14.4375 33.654956,12.661082 29.051262,11.53125 24,11.53125 z"
               transform="translate(-60,71)" />
            <path
               sodipodi:type="arc"
               style="opacity:0.5;fill:url(#linearGradient2885);fill-opacity:1;stroke:none;display:inline"
               id="path2852"
               sodipodi:cx="8.7725439"
               sodipodi:cy="30.852661"
               sodipodi:rx="2.9831069"
               sodipodi:ry="1.8561553"
               d="m 11.755651,30.852661 c 0,1.025126 -1.335583,1.856155 -2.9831071,1.856155 -1.6475244,0 -2.9831068,-0.831029 -2.9831068,-1.856155 0,-1.025126 1.3355824,-1.856155 2.9831068,-1.856155 1.6475241,0 2.9831071,0.831029 2.9831071,1.856155 z"
               transform="matrix(1,0,0,1.077496,-31.25565,58.756381)" />
            <path
               sodipodi:type="arc"
               style="opacity:0.5;fill:url(#linearGradient2887);fill-opacity:1;stroke:none;display:inline"
               id="path2861"
               sodipodi:cx="8.7725439"
               sodipodi:cy="30.852661"
               sodipodi:rx="2.9831069"
               sodipodi:ry="1.8561553"
               d="m 11.755651,30.852661 c 0,1.025126 -1.335583,1.856155 -2.9831071,1.856155 -1.6475244,0 -2.9831068,-0.831029 -2.9831068,-1.856155 0,-1.025126 1.3355824,-1.856155 2.9831068,-1.856155 1.6475241,0 2.9831071,0.831029 2.9831071,1.856155 z"
               transform="matrix(1,0,0,1.077496,-60.25565,58.756381)" />
            <path
               sodipodi:nodetypes="cccssssssscsssssssssccc"
               id="path2793"
               d="m -17.65625,97.5625 c 0.270668,0.07252 0.494008,-0.05688 0.5625,-0.3125 l 0.25,-0.96875 c -1.58e-4,-0.01042 -1.58e-4,-0.02083 0,-0.03125 0.0311,-0.116081 0.03828,-0.181191 0.03125,-0.09375 1.48e-4,-0.0843 0.01064,-0.168259 0.03125,-0.25 0.07359,-0.241318 0.103931,-0.279617 0.0625,-0.125 0.321296,-1.199093 0.179965,-2.409967 -0.3125,-3.4375 -0.04465,-0.08874 -0.07623,-0.18347 -0.09375,-0.28125 -0.403868,-2.478723 -2.467456,-4.848582 -5.84375,-6.625 -3.376294,-1.776418 -7.979988,-2.90625 -13.03125,-2.90625 -5.078343,0 -9.708139,1.144485 -13.09375,2.9375 -3.385611,1.793015 -5.441681,4.192119 -5.8125,6.6875 -0.01752,0.09778 -0.0491,0.192511 -0.09375,0.28125 -0.470556,1.018412 -0.595918,2.169392 -0.28125,3.34375 -0.04143,-0.154633 -0.01109,-0.11633 0.0625,0.125 0.02504,0.08211 -0.0075,0.06629 0,0.125 1.58e-4,0.01042 1.58e-4,0.02083 0,0.03125 0.0033,0.0407 0.03301,0.06588 0.03125,0.09375 -0.007,-0.08744 1.45e-4,-0.02233 0.03125,0.09375 1.58e-4,0.01042 1.58e-4,0.02083 0,0.03125 l 0.25,1 c 0.06849,0.255614 0.260584,0.353775 0.53125,0.28125"
               style="opacity:0.2342342;fill:none;stroke:url(#radialGradient2889);stroke-width:1;stroke-linecap:round;stroke-linejoin:miter;stroke-miterlimit:4;stroke-opacity:1;stroke-dashoffset:0;display:inline"
               inkscape:connector-curvature="0" />
          </g>
        </g>
      </g>
      <g
         style="display:none"
         inkscape:label="troiai"
         id="layer2">
        <path
           transform="matrix(0.82243,0,0,0.82243,-68.30374,4.369158)"
           d="m 18,21.4375 c 0,3.693404 -2.994096,6.6875 -6.6875,6.6875 -3.6934043,0 -6.6875,-2.994096 -6.6875,-6.6875 0,-3.693404 2.9940957,-6.6875 6.6875,-6.6875 3.693404,0 6.6875,2.994096 6.6875,6.6875 z"
           sodipodi:ry="6.6875"
           sodipodi:rx="6.6875"
           sodipodi:cy="21.4375"
           sodipodi:cx="11.3125"
           id="path2763"
           style="opacity:0.9;fill:#ef2929;fill-opacity:1;stroke:#a40000;stroke-width:1.21590912;stroke-linecap:round;stroke-linejoin:miter;stroke-miterlimit:4;stroke-opacity:1;stroke-dasharray:none;stroke-dashoffset:0"
           sodipodi:type="arc" />
        <path
           transform="matrix(0.82243,0,0,0.82243,-42.30374,4.369158)"
           d="m 18,21.4375 c 0,3.693404 -2.994096,6.6875 -6.6875,6.6875 -3.6934043,0 -6.6875,-2.994096 -6.6875,-6.6875 0,-3.693404 2.9940957,-6.6875 6.6875,-6.6875 3.693404,0 6.6875,2.994096 6.6875,6.6875 z"
           sodipodi:ry="6.6875"
           sodipodi:rx="6.6875"
           sodipodi:cy="21.4375"
           sodipodi:cx="11.3125"
           id="path2765"
           style="opacity:0.9;fill:#ef2929;fill-opacity:1;stroke:#a40000;stroke-width:1.21590912;stroke-linecap:round;stroke-linejoin:miter;stroke-miterlimit:4;stroke-opacity:1;stroke-dasharray:none;stroke-dashoffset:0"
           sodipodi:type="arc" />
        <path
           transform="matrix(1.116981,0,0,1.179487,-73.01698,-3.211538)"
           d="m 40.75,21.375 c 0,5.384776 -7.415284,9.75 -16.5625,9.75 -9.147216,0 -16.5625,-4.365224 -16.5625,-9.75 0,-5.384776 7.415284,-9.75 16.5625,-9.75 9.147216,0 16.5625,4.365224 16.5625,9.75 z"
           sodipodi:ry="9.75"
           sodipodi:rx="16.5625"
           sodipodi:cy="21.375"
           sodipodi:cx="24.1875"
           id="path2767"
           style="opacity:0.6;fill:#ef2929;fill-opacity:1;stroke:#a40000;stroke-width:0.87122524;stroke-linecap:round;stroke-linejoin:miter;stroke-miterlimit:4;stroke-opacity:1;stroke-dasharray:none;stroke-dashoffset:0"
           sodipodi:type="arc" />
        <path
           transform="matrix(0.573586,0,0,0.663968,-59.87362,7.781372)"
           d="m 40.75,21.375 c 0,5.384776 -7.415284,9.75 -16.5625,9.75 -9.147216,0 -16.5625,-4.365224 -16.5625,-9.75 0,-5.384776 7.415284,-9.75 16.5625,-9.75 9.147216,0 16.5625,4.365224 16.5625,9.75 z"
           sodipodi:ry="9.75"
           sodipodi:rx="16.5625"
           sodipodi:cy="21.375"
           sodipodi:cx="24.1875"
           id="path2769"
           style="opacity:0.6;fill:#ef2929;fill-opacity:1;stroke:#a40000;stroke-width:1.62041819;stroke-linecap:round;stroke-linejoin:miter;stroke-miterlimit:4;stroke-opacity:1;stroke-dasharray:none;stroke-dashoffset:0"
           sodipodi:type="arc" />
        <path
           id="path2805"
           d="M 23.99999,70.5 C 12.959975,70.5 3.9999611,75.652001 3.999961,82 l 9.729744,0 c -8.1e-5,-0.01053 0,-0.02071 0,-0.03125 0,-3.573476 4.601077,-6.46875 10.270285,-6.46875 5.66921,0 10.270285,2.895274 10.270285,6.46875 0,0.01054 8.1e-5,0.02072 0,0.03125 l 9.729745,0 c 0,-6.347999 -8.960014,-11.5 -20.00003,-11.5 z"
           style="opacity:0.6;fill:#ef2929;fill-opacity:1;stroke:#a40000;stroke-width:1;stroke-linecap:round;stroke-linejoin:miter;stroke-miterlimit:4;stroke-opacity:1;stroke-dasharray:none;stroke-dashoffset:0"
           inkscape:connector-curvature="0" />
        <path
           transform="matrix(0.897196,0,0,0.897196,-0.649528,64.26636)"
           d="m 18,21.4375 c 0,3.693404 -2.994096,6.6875 -6.6875,6.6875 -3.6934043,0 -6.6875,-2.994096 -6.6875,-6.6875 0,-3.693404 2.9940957,-6.6875 6.6875,-6.6875 3.693404,0 6.6875,2.994096 6.6875,6.6875 z"
           sodipodi:ry="6.6875"
           sodipodi:rx="6.6875"
           sodipodi:cy="21.4375"
           sodipodi:cx="11.3125"
           id="path2807"
           style="opacity:0.9;fill:#ef2929;fill-opacity:1;stroke:#a40000;stroke-width:1.11458337;stroke-linecap:round;stroke-linejoin:miter;stroke-miterlimit:4;stroke-opacity:1;stroke-dasharray:none;stroke-dashoffset:0"
           sodipodi:type="arc" />
        <path
           transform="matrix(0.897196,0,0,0.897196,28.35047,64.26636)"
           d="m 18,21.4375 c 0,3.693404 -2.994096,6.6875 -6.6875,6.6875 -3.6934043,0 -6.6875,-2.994096 -6.6875,-6.6875 0,-3.693404 2.9940957,-6.6875 6.6875,-6.6875 3.693404,0 6.6875,2.994096 6.6875,6.6875 z"
           sodipodi:ry="6.6875"
           sodipodi:rx="6.6875"
           sodipodi:cy="21.4375"
           sodipodi:cx="11.3125"
           id="path2809"
           style="opacity:0.9;fill:#ef2929;fill-opacity:1;stroke:#a40000;stroke-width:1.11458337;stroke-linecap:round;stroke-linejoin:miter;stroke-miterlimit:4;stroke-opacity:1;stroke-dasharray:none;stroke-dashoffset:0"
           sodipodi:type="arc" />
        <path
           inkscape:transform-center-y="-1.7187079"
           inkscape:transform-center-x="0.027159543"
           id="path2840"
           d="m 7.9557575,-22.292184 c -3.1991459,0.857209 -5.0998504,4.149325 -4.242642,7.34847 0.087458,0.326399 0.2139085,0.643845 0.3493746,0.941662 l 11.4100009,-3.057299 c -0.03159,-0.32565 -0.0808,-0.663792 -0.168264,-0.990191 -0.857208,-3.199145 -4.149324,-5.09985 -7.3484695,-4.242642 z"
           style="fill:#ef2929;fill-opacity:1;stroke:#a40000;stroke-width:1.00000012;stroke-linecap:round;stroke-linejoin:miter;stroke-miterlimit:4;stroke-opacity:1;stroke-dasharray:none;stroke-dashoffset:0"
           inkscape:connector-curvature="0" />
        <path
           inkscape:transform-center-y="-1.7187079"
           inkscape:transform-center-x="0.027159543"
           id="path2842"
           d="m 40.051683,-22.294327 c 3.199145,0.857209 5.09985,4.149325 4.242642,7.34847 -0.08746,0.326399 -0.213909,0.643845 -0.349375,0.941662 l -11.410001,-3.057299 c 0.03159,-0.32565 0.08081,-0.663792 0.168264,-0.990191 0.857208,-3.199145 4.149324,-5.09985 7.34847,-4.242642 z"
           style="fill:#ef2929;fill-opacity:1;stroke:#a40000;stroke-width:1.00000012;stroke-linecap:round;stroke-linejoin:miter;stroke-miterlimit:4;stroke-opacity:1;stroke-dasharray:none;stroke-dashoffset:0"
           inkscape:connector-curvature="0" />
      </g>
    </g>
    <path
       style="fill:#ececec;fill-opacity:1;stroke:#ececec;stroke-width:0.20669039;stroke-linejoin:miter;stroke-miterlimit:4;stroke-opacity:1;stroke-dasharray:none;stroke-dashoffset:0"
       d="m 148.5072,406.56798 c 17.3087,-32.9577 34.64741,-65.89965 51.92724,-98.8725 17.40479,32.94796 34.85251,65.87327 52.21312,98.84455 -34.71344,0.009 -69.42701,0.0185 -104.14036,0.0279 z m 97.1023,-4.06317 c -12.70618,-24.43668 -25.36668,-48.91134 -38.31447,-73.2131 -2.96788,-0.9838 -2.87489,8.4692 -4.8179,2.13076 -1.77011,-2.90897 -3.86504,-12.10041 -6.80044,-5.32207 -12.90859,25.56261 -26.0697,51.02446 -39.13433,76.51938 29.68624,-0.0847 59.39359,0.18667 89.06714,-0.11497 z"
       id="path3822"
       inkscape:connector-curvature="0" />
  </g>
</svg>
